<svg xmlns="http://www.w3.org/2000/svg" width="330" height="186" viewBox="0 0 330 186" fill="none"><path d="M115.091 62.1444C115.091 41.1545 101.176 37.2631 85.257 37.2631C76.8846 37.2631 68.0405 41.862 59.6681 41.862C47.4043 41.862 41.6262 37.2631 33.2538 37.2631C15.6835 37.2631 0 47.0505 0 70.8706C0 92.3322 14.5043 103.181 29.0086 103.181C41.6262 103.181 54.1258 95.0444 57.1917 78.6534H56.838C53.3003 88.205 43.9846 93.2756 34.1971 93.2756C20.2824 93.2756 5.42437 83.0164 5.42437 61.0831C5.42437 47.4043 13.443 40.9186 24.2917 40.9186C35.848 40.9186 46.343 49.291 60.9652 49.291C75.2337 49.291 79.4788 38.6781 91.153 38.6781C97.7566 38.6781 104.242 43.6308 104.242 54.8333V59.3143C79.0071 59.4322 61.4369 69.6914 61.4369 86.2003C61.4369 97.167 69.5735 102.827 78.8892 102.827C89.3842 102.827 101.294 95.634 104.242 81.0118V92.9218C104.242 98.8179 107.19 101.884 113.322 101.884H115.091V62.1444ZM104.242 73.7007C104.242 88.3229 93.5114 96.9311 84.5494 96.9311C78.0638 96.9311 72.5215 92.4501 72.5215 82.5448C72.5215 68.6301 83.0165 61.319 104.242 60.7294V73.7007Z" fill="#FEF7EE"></path><path d="M155.558 16.9806V5.30644C138.224 6.48566 126.668 17.8061 126.668 32.9V38.2064H118.413V39.6215H126.668V101.884H137.516V39.6215H152.728V38.2064H137.516V21.1079C137.516 14.1505 138.813 10.0233 142.705 10.0233C145.417 10.0233 149.544 12.2638 155.558 16.9806Z" fill="#FEF7EE"></path><path d="M203.113 5.54229L196.745 0L179.057 27.1219L179.646 27.7115L203.113 5.54229ZM209.716 77.9458C205.471 88.3229 194.858 94.101 184.127 94.101C171.274 94.101 158.303 85.6107 156.534 66.3896C167.972 66.3896 188.137 66.5075 199.457 66.5075C204.41 66.5075 204.881 65.2104 204.881 61.6727C204.881 46.2251 191.792 37.6168 178.231 37.6168C163.491 37.6168 148.043 47.876 148.043 70.8706C148.043 92.5681 163.491 103.299 179.057 103.299C192.736 103.299 206.65 94.9265 210.07 78.0638L209.716 77.9458ZM195.33 58.9605C195.33 64.1491 193.207 64.7387 187.429 64.7387H156.416C156.416 46.5788 166.321 38.914 176.109 38.914C185.778 38.914 195.33 46.4609 195.33 58.9605Z" fill="#FEF7EE"></path><path d="M103.651 142.531C103.651 125.159 92.6973 118.778 80.8009 118.778C71.1424 118.778 60.8951 122.323 54.5346 129.65C50.5299 121.85 42.6383 118.778 34.2755 118.778C25.7949 118.778 16.7254 121.969 10.8361 126.696V126.577L-0.000244141 135.559V183.774H10.8361V143.358C10.8361 128.232 19.5522 121.023 28.3862 121.023C37.3379 121.023 46.4074 128.468 46.4074 142.531V183.774H57.2437V143.358C57.2437 128.232 65.9599 121.023 74.7938 121.023C83.7455 121.023 92.815 128.468 92.815 142.531V183.774H103.651V142.531Z" fill="#FEF7EE"></path><path d="M160.035 123.623V153.403C160.035 172.193 150.494 180.229 141.307 180.229C132.709 180.229 124.464 173.256 124.464 161.557V119.132L113.627 123.623V161.557C113.627 177.038 124.699 185.074 136.124 185.074C146.607 185.074 157.444 178.22 160.035 163.921V183.774H170.871V119.132L160.035 123.623Z" fill="#FEF7EE"></path><path d="M238.593 142.531C238.593 125.041 227.638 118.778 215.624 118.778C207.144 118.778 198.074 121.969 192.185 126.696V126.577L181.349 135.559V183.774H192.185V143.358C192.185 128.232 200.901 121.023 209.735 121.023C218.687 121.023 227.756 128.468 227.756 142.531V183.774H238.593V142.531Z" fill="#FEF7EE"></path><path d="M296.324 90.0615V122.087C291.731 121.378 287.019 119.251 281.012 119.251C257.69 119.251 246.619 138.04 246.619 155.648C246.619 175.502 257.926 185.074 269.94 185.074C281.012 185.074 292.673 176.802 296.324 160.966V174.911C296.324 180.82 299.269 183.774 305.394 183.774H307.161V85.5709L296.324 90.0615ZM296.324 151.276C296.324 168.884 286.548 178.22 276.418 178.22C265.818 178.22 254.981 167.939 254.981 145.958C254.981 128.823 265.111 121.378 275.358 121.378C285.841 121.378 296.324 129.059 296.324 141.704V151.276Z" fill="#FEF7EE"></path><path d="M318.665 183.774H329.501V119.132L318.665 123.623V183.774Z" fill="#FEF7EE"></path></svg>